<svg width="49" height="22" viewBox="0 0 49 22" fill="none" xmlns="http://www.w3.org/2000/svg">
<path d="M11.9167 9.1665H14.6667V11.9165H11.9167V18.3332H9.16675V11.9165H6.41675V9.1665H9.16675V8.01609C9.16675 6.92617 9.50958 5.54934 10.1916 4.79675C10.8736 4.04234 11.7252 3.6665 12.7454 3.6665H14.6667V6.4165H12.7417C12.2852 6.4165 11.9167 6.785 11.9167 7.24059V9.1665Z" fill="#061A48"/>
<path d="M47.4683 5.71327C46.8321 5.99468 46.1574 6.1795 45.4666 6.26161C46.1947 5.82613 46.7397 5.14078 46.9999 4.33327C46.3166 4.73994 45.5674 5.02494 44.7866 5.17911C44.2621 4.61792 43.5669 4.24574 42.8091 4.12043C42.0512 3.99511 41.2732 4.12368 40.596 4.48615C39.9187 4.84862 39.3802 5.42468 39.0642 6.12477C38.7481 6.82486 38.6722 7.60976 38.8483 8.35744C37.4625 8.28798 36.1069 7.92788 34.8693 7.30049C33.6318 6.67311 32.54 5.79248 31.6649 4.71577C31.3552 5.24781 31.1924 5.85263 31.1933 6.46827C31.1933 7.67661 31.8083 8.74411 32.7433 9.36911C32.1899 9.35169 31.6488 9.20226 31.1649 8.93327V8.9766C31.1651 9.78136 31.4436 10.5613 31.9531 11.1842C32.4627 11.807 33.172 12.2345 33.9608 12.3941C33.4471 12.5333 32.9085 12.5538 32.3858 12.4541C32.6081 13.1468 33.0416 13.7526 33.6254 14.1867C34.2092 14.6208 34.9142 14.8614 35.6416 14.8749C34.9187 15.4427 34.0909 15.8624 33.2057 16.1101C32.3204 16.3577 31.395 16.4285 30.4824 16.3183C32.0755 17.3428 33.93 17.8867 35.8241 17.8849C42.2349 17.8849 45.7408 12.5741 45.7408 7.96827C45.7408 7.81827 45.7366 7.66661 45.7299 7.51827C46.4123 7.02508 47.0013 6.41412 47.4691 5.71411L47.4683 5.71327Z" fill="#061A48"/>
</svg>
