<svg width="82" height="82" viewBox="0 0 82 82" fill="none" xmlns="http://www.w3.org/2000/svg">
<path d="M82 41C82 63.6437 63.6437 82 41 82C18.3563 82 0 63.6437 0 41C0 18.3563 18.3563 0 41 0C63.6437 0 82 18.3563 82 41Z" fill="white"/>
<path d="M35.5 22.7998H27.5C27.3333 33.7998 27 56.2998 27 58.2998C27 60.2998 28.6667 61.7998 29.5 62.2998C35.8333 61.9665 49.4 61.4998 53 62.2998C56.6 63.0998 58.1667 60.2998 58.5 58.7998C58.3333 48.1331 58.1 26.4998 58.5 25.2998C58.9 24.0998 57 23.1331 56 22.7998C53.8333 22.2998 49.6 21.5998 50 22.7998C50.4 23.9998 48.1667 24.9665 47 25.2998H40C36.4 25.2998 35.5 23.6331 35.5 22.7998Z" fill="#F2F2F2"/>
<path d="M39.25 36.525C39.25 36.1471 39.4001 35.7846 39.6674 35.5174C39.9346 35.2501 40.2971 35.1 40.675 35.1H45.6625H50.65C51.0279 35.1 51.3904 35.2501 51.6576 35.5174C51.9249 35.7846 52.075 36.1471 52.075 36.525C52.075 36.9029 51.9249 37.2654 51.6576 37.5326C51.3904 37.7999 51.0279 37.95 50.65 37.95H45.6625H40.675C40.2971 37.95 39.9346 37.7999 39.6674 37.5326C39.4001 37.2654 39.25 36.9029 39.25 36.525ZM39.25 45.075C39.25 44.6971 39.4001 44.3346 39.6674 44.0674C39.9346 43.8001 40.2971 43.65 40.675 43.65H50.65C51.0279 43.65 51.3904 43.8001 51.6576 44.0674C51.9249 44.3346 52.075 44.6971 52.075 45.075C52.075 45.4529 51.9249 45.8154 51.6576 46.0826C51.3904 46.3499 51.0279 46.5 50.65 46.5H40.675C40.2971 46.5 39.9346 46.3499 39.6674 46.0826C39.4001 45.8154 39.25 45.4529 39.25 45.075ZM39.25 53.625C39.25 53.2471 39.4001 52.8846 39.6674 52.6174C39.9346 52.3501 40.2971 52.2 40.675 52.2H50.65C51.0279 52.2 51.3904 52.3501 51.6576 52.6174C51.9249 52.8846 52.075 53.2471 52.075 53.625C52.075 54.0029 51.9249 54.3654 51.6576 54.6326C51.3904 54.8999 51.0279 55.05 50.65 55.05H40.675C40.2971 55.05 39.9346 54.8999 39.6674 54.6326C39.4001 54.3654 39.25 54.0029 39.25 53.625ZM36.4 36.525C36.4 37.0919 36.1748 37.6356 35.7739 38.0364C35.3731 38.4373 34.8294 38.6625 34.2625 38.6625C33.6956 38.6625 33.1519 38.4373 32.7511 38.0364C32.3502 37.6356 32.125 37.0919 32.125 36.525C32.125 35.9581 32.3502 35.4144 32.7511 35.0136C33.1519 34.6127 33.6956 34.3875 34.2625 34.3875C34.8294 34.3875 35.3731 34.6127 35.7739 35.0136C36.1748 35.4144 36.4 35.9581 36.4 36.525ZM36.4 45.075C36.4 45.6419 36.1748 46.1856 35.7739 46.5864C35.3731 46.9873 34.8294 47.2125 34.2625 47.2125C33.6956 47.2125 33.1519 46.9873 32.7511 46.5864C32.3502 46.1856 32.125 45.6419 32.125 45.075C32.125 44.5081 32.3502 43.9644 32.7511 43.5636C33.1519 43.1627 33.6956 42.9375 34.2625 42.9375C34.8294 42.9375 35.3731 43.1627 35.7739 43.5636C36.1748 43.9644 36.4 44.5081 36.4 45.075ZM34.2625 55.7625C34.8294 55.7625 35.3731 55.5373 35.7739 55.1364C36.1748 54.7356 36.4 54.1919 36.4 53.625C36.4 53.0581 36.1748 52.5144 35.7739 52.1136C35.3731 51.7127 34.8294 51.4875 34.2625 51.4875C33.6956 51.4875 33.1519 51.7127 32.7511 52.1136C32.3502 52.5144 32.125 53.0581 32.125 53.625C32.125 54.1919 32.3502 54.7356 32.7511 55.1364C33.1519 55.5373 33.6956 55.7625 34.2625 55.7625ZM33.7923 20.85C34.0871 20.0162 34.6332 19.2943 35.3555 18.7838C36.0778 18.2734 36.9406 17.9995 37.825 18H46.375C47.2594 17.9995 48.1222 18.2734 48.8445 18.7838C49.5668 19.2943 50.1129 20.0162 50.4078 20.85H54.925C56.0588 20.85 57.1462 21.3004 57.9479 22.1021C58.7496 22.9038 59.2 23.9912 59.2 25.125V59.325C59.2 60.4588 58.7496 61.5462 57.9479 62.3479C57.1462 63.1496 56.0588 63.6 54.925 63.6H29.275C28.1412 63.6 27.0538 63.1496 26.2521 62.3479C25.4504 61.5462 25 60.4588 25 59.325V25.125C25 23.9912 25.4504 22.9038 26.2521 22.1021C27.0538 21.3004 28.1412 20.85 29.275 20.85H33.7923ZM37.825 20.85C37.4471 20.85 37.0846 21.0001 36.8174 21.2674C36.5501 21.5346 36.4 21.8971 36.4 22.275C36.4 22.6529 36.5501 23.0154 36.8174 23.2826C37.0846 23.5499 37.4471 23.7 37.825 23.7H46.375C46.7529 23.7 47.1154 23.5499 47.3826 23.2826C47.6499 23.0154 47.8 22.6529 47.8 22.275C47.8 21.8971 47.6499 21.5346 47.3826 21.2674C47.1154 21.0001 46.7529 20.85 46.375 20.85H37.825ZM33.7923 23.7H29.275C28.8971 23.7 28.5346 23.8501 28.2674 24.1174C28.0001 24.3846 27.85 24.7471 27.85 25.125V59.325C27.85 59.7029 28.0001 60.0654 28.2674 60.3326C28.5346 60.5999 28.8971 60.75 29.275 60.75H54.925C55.3029 60.75 55.6654 60.5999 55.9326 60.3326C56.1999 60.0654 56.35 59.7029 56.35 59.325V25.125C56.35 24.7471 56.1999 24.3846 55.9326 24.1174C55.6654 23.8501 55.3029 23.7 54.925 23.7H50.4078C50.1129 24.5338 49.5668 25.2557 48.8445 25.7662C48.1222 26.2766 47.2594 26.5505 46.375 26.55H37.825C36.9406 26.5505 36.0778 26.2766 35.3555 25.7662C34.6332 25.2557 34.0871 24.5338 33.7923 23.7Z" fill="#F8A324"/>
<path d="M30 57.7998V30.2998H54.5V57.7998H30Z" fill="#F2F2F2"/>
<circle cx="34" cy="36.2998" r="2" fill="#6D717A"/>
<rect x="39" y="35.2998" width="14" height="2" rx="1" fill="#6D717A"/>
<circle cx="34" cy="45.2998" r="2" fill="#6D717A"/>
<rect x="39" y="44.2998" width="14" height="2" rx="1" fill="#6D717A"/>
<circle cx="34" cy="54.2998" r="2" fill="#6D717A"/>
<rect x="39" y="53.2998" width="14" height="2" rx="1" fill="#6D717A"/>
</svg>
