<svg width="82" height="82" viewBox="0 0 82 82" fill="none" xmlns="http://www.w3.org/2000/svg">
<path d="M82 41C82 63.6437 63.6437 82 41 82C18.3563 82 0 63.6437 0 41C0 18.3563 18.3563 0 41 0C63.6437 0 82 18.3563 82 41Z" fill="white"/>
<path d="M34.4 49.8H38.8V32.2H34.4V49.8ZM41 19C28.856 19 19 28.856 19 41C19 53.144 28.856 63 41 63C53.144 63 63 53.144 63 41C63 28.856 53.144 19 41 19ZM41 58.6C31.298 58.6 23.4 50.702 23.4 41C23.4 31.298 31.298 23.4 41 23.4C50.702 23.4 58.6 31.298 58.6 41C58.6 50.702 50.702 58.6 41 58.6ZM43.2 49.8H47.6V32.2H43.2V49.8Z" fill="#F8A324"/>
</svg>
