<svg width="82" height="82" viewBox="0 0 82 82" fill="none" xmlns="http://www.w3.org/2000/svg">
<path d="M82 41C82 63.6437 63.6437 82 41 82C18.3563 82 0 63.6437 0 41C0 18.3563 18.3563 0 41 0C63.6437 0 82 18.3563 82 41Z" fill="white"/>
<g clip-path="url(#clip0_2787_2967)">
<path d="M27.9997 37.3333H26.333V40.6667H27.9997V37.3333ZM47.9997 40.6667H49.6663V37.3333H47.9997V40.6667ZM41.333 47.3333H39.6663V50.6667H41.333V47.3333ZM47.9997 50.6667H49.6663V47.3333H47.9997V50.6667ZM27.9997 27.3333H26.333V30.6667H27.9997V27.3333ZM34.6663 30.6667H36.333V27.3333H34.6663V30.6667ZM47.9997 15.6667L49.1797 14.4867L48.6897 14H47.9997V15.6667ZM57.9997 25.6667H59.6663V24.9767L59.1797 24.4867L57.9997 25.6667ZM27.9997 40.6667H47.9997V37.3333H27.9997V40.6667ZM41.333 50.6667H47.9997V47.3333H41.333V50.6667ZM27.9997 30.6667H34.6663V27.3333H27.9997V30.6667ZM54.6663 60.6667H21.333V64H54.6663V60.6667ZM19.6663 59V19H16.333V59H19.6663ZM21.333 17.3333H47.9997V14H21.333V17.3333ZM56.333 25.6667V59H59.6663V25.6667H56.333ZM46.8197 16.8467L56.8197 26.8467L59.1797 24.4867L49.1797 14.4867L46.8197 16.8467ZM21.333 60.6667C20.891 60.6667 20.4671 60.4911 20.1545 60.1785C19.8419 59.866 19.6663 59.442 19.6663 59H16.333C16.333 60.3261 16.8598 61.5979 17.7975 62.5355C18.7352 63.4732 20.0069 64 21.333 64V60.6667ZM54.6663 64C55.9924 64 57.2642 63.4732 58.2019 62.5355C59.1396 61.5979 59.6663 60.3261 59.6663 59H56.333C56.333 59.442 56.1574 59.866 55.8449 60.1785C55.5323 60.4911 55.1084 60.6667 54.6663 60.6667V64ZM19.6663 19C19.6663 18.558 19.8419 18.134 20.1545 17.8215C20.4671 17.5089 20.891 17.3333 21.333 17.3333V14C20.0069 14 18.7352 14.5268 17.7975 15.4645C16.8598 16.4021 16.333 17.6739 16.333 19H19.6663Z" fill="#F8A324"/>
<rect x="25" y="27" width="13" height="4" rx="2" fill="#6D717A"/>
<rect x="38" y="47" width="13" height="4" rx="2" fill="#6D717A"/>
<rect x="25" y="37" width="26" height="4" rx="2" fill="#6D717A"/>
<circle cx="53" cy="55" r="13" fill="#DB0C0C"/>
<path d="M58.0909 57.4H61V49H58.0909M55.1818 49H48.6364C48.0327 49 47.5164 49.35 47.2982 49.854L45.1018 54.789C45.0364 54.95 45 55.118 45 55.3V56.7C45 57.0713 45.1532 57.4274 45.426 57.6899C45.6988 57.9525 46.0688 58.1 46.4545 58.1H51.0436L50.3527 61.299C50.3382 61.369 50.3309 61.439 50.3309 61.516C50.3309 61.81 50.4545 62.069 50.6509 62.258L51.4218 63L56.2073 58.387C56.4764 58.135 56.6364 57.785 56.6364 57.4V50.4C56.6364 50.0287 56.4831 49.6726 56.2103 49.4101C55.9376 49.1475 55.5676 49 55.1818 49Z" fill="white"/>
</g>
<defs>
<clipPath id="clip0_2787_2967">
<rect width="50" height="54" fill="white" transform="translate(16 14)"/>
</clipPath>
</defs>
</svg>
