<svg width="23" height="23" viewBox="0 0 23 23" fill="none" xmlns="http://www.w3.org/2000/svg">
<g clip-path="url(#clip0_1183_1269)">
<path d="M11.5 23C17.8513 23 23 17.8513 23 11.5C23 5.14873 17.8513 0 11.5 0C5.14873 0 0 5.14873 0 11.5C0 17.8513 5.14873 23 11.5 23Z" fill="#FFCC4D"/>
<path d="M6.71786 15.091C6.74661 15.2054 7.46408 17.8887 11.4999 17.8887C15.5364 17.8887 16.2533 15.2054 16.282 15.091C16.2988 15.0236 16.2931 14.9525 16.2658 14.8886C16.2384 14.8247 16.191 14.7715 16.1306 14.7371C16.07 14.7028 15.9999 14.6891 15.9308 14.6979C15.8617 14.7068 15.7973 14.7378 15.7473 14.7863C15.7351 14.7984 14.4989 15.9721 11.4999 15.9721C8.501 15.9721 7.26411 14.7984 7.25261 14.7869C7.20314 14.7381 7.13913 14.7066 7.07022 14.6972C7.00131 14.6879 6.93123 14.7012 6.87055 14.7352C6.80964 14.7696 6.76172 14.823 6.73414 14.8873C6.70655 14.9516 6.70083 15.0232 6.71786 15.091Z" fill="#664500"/>
<path d="M7.66656 10.8609C8.54868 10.8609 9.26378 9.85975 9.26378 8.62478C9.26378 7.38981 8.54868 6.38867 7.66656 6.38867C6.78444 6.38867 6.06934 7.38981 6.06934 8.62478C6.06934 9.85975 6.78444 10.8609 7.66656 10.8609Z" fill="#664500"/>
<path d="M15.3333 10.8609C16.2154 10.8609 16.9305 9.85975 16.9305 8.62478C16.9305 7.38981 16.2154 6.38867 15.3333 6.38867C14.4512 6.38867 13.7361 7.38981 13.7361 8.62478C13.7361 9.85975 14.4512 10.8609 15.3333 10.8609Z" fill="#664500"/>
</g>
<defs>
<clipPath id="clip0_1183_1269">
<rect width="23" height="23" fill="white"/>
</clipPath>
</defs>
</svg>
