<svg width="31" height="27" viewBox="0 0 31 27" fill="none" xmlns="http://www.w3.org/2000/svg">
<path d="M15.4993 21.5208C17.3223 21.5208 18.872 20.8831 20.1485 19.6075C21.4241 18.331 22.0618 16.7812 22.0618 14.9583C22.0618 13.1354 21.4241 11.5857 20.1485 10.3092C18.872 9.03361 17.3223 8.39583 15.4993 8.39583C13.6764 8.39583 12.1267 9.03361 10.8502 10.3092C9.57463 11.5857 8.93685 13.1354 8.93685 14.9583C8.93685 16.7812 9.57463 18.331 10.8502 19.6075C12.1267 20.8831 13.6764 21.5208 15.4993 21.5208ZM15.4993 20.0625L13.8952 16.5625L10.3952 14.9583L13.8952 13.3542L15.4993 9.85417L17.1035 13.3542L20.6035 14.9583L17.1035 16.5625L15.4993 20.0625ZM0.916016 26.625V3.29167H8.42643L11.1243 0.375H19.8743L22.5723 3.29167H30.0827V26.625H0.916016Z" fill="#6D717A"/>
</svg>
