<svg width="83" height="83" viewBox="0 0 83 83" fill="none" xmlns="http://www.w3.org/2000/svg">
<g clip-path="url(#clip0_519_1019)">
<path d="M41.5002 4.61133C34.2043 4.61133 27.0722 6.77482 21.0059 10.8282C14.9395 14.8816 10.2114 20.6429 7.41934 27.3834C4.62731 34.124 3.89679 41.5411 5.32015 48.6969C6.74352 55.8526 10.2568 62.4256 15.4159 67.5846C20.5749 72.7436 27.1478 76.2569 34.3036 77.6803C41.4593 79.1037 48.8764 78.3731 55.617 75.5811C62.3576 72.7891 68.1188 68.0609 72.1722 61.9946C76.2256 55.9282 78.3891 48.7962 78.3891 41.5002C78.3891 31.7167 74.5026 22.3338 67.5846 15.4158C60.6666 8.49783 51.2838 4.61133 41.5002 4.61133ZM41.5002 73.778C35.1163 73.778 28.8757 71.8849 23.5677 68.3382C18.2596 64.7915 14.1225 59.7504 11.6795 53.8524C9.23643 47.9544 8.59722 41.4644 9.84266 35.2031C11.0881 28.9419 14.1623 23.1905 18.6764 18.6764C23.1905 14.1623 28.9419 11.0881 35.2032 9.84265C41.4644 8.5972 47.9544 9.23641 53.8524 11.6794C59.7504 14.1225 64.7915 18.2596 68.3382 23.5676C71.885 28.8757 73.778 35.1163 73.778 41.5002C73.778 50.0608 70.3773 58.2708 64.3241 64.3241C58.2708 70.3773 50.0608 73.778 41.5002 73.778Z" fill="#061A48"/>
<path d="M64.5554 27.897C64.1235 27.4676 63.5391 27.2266 62.93 27.2266C62.3209 27.2266 61.7366 27.4676 61.3046 27.897L35.7129 53.3734L21.8796 39.5401C21.4577 39.0845 20.8721 38.8152 20.2516 38.7914C19.6312 38.7677 19.0267 38.9913 18.5711 39.4133C18.1156 39.8352 17.8463 40.4208 17.8225 41.0412C17.7987 41.6617 18.0224 42.2662 18.4443 42.7217L35.7129 59.9442L64.5554 31.1709C64.7715 30.9566 64.9431 30.7016 65.0601 30.4206C65.1772 30.1397 65.2374 29.8383 65.2374 29.5339C65.2374 29.2296 65.1772 28.9282 65.0601 28.6473C64.9431 28.3663 64.7715 28.1113 64.5554 27.897Z" fill="#061A48"/>
</g>
<defs>
<clipPath id="clip0_519_1019">
<rect width="83" height="83" fill="white"/>
</clipPath>
</defs>
</svg>
