<svg width="15" height="15" viewBox="0 0 15 15" fill="none" xmlns="http://www.w3.org/2000/svg">
<path d="M0.386719 11.8887V14.3069C0.386719 14.5296 0.561719 14.7046 0.784446 14.7046H3.20263C3.30604 14.7046 3.40945 14.6649 3.48104 14.5853L12.1674 5.90692L9.18445 2.92397L0.506037 11.6024C0.426492 11.6819 0.386719 11.7774 0.386719 11.8887ZM14.4742 2.47851L12.6129 0.617147C12.5393 0.543406 12.4519 0.484902 12.3556 0.444985C12.2594 0.405068 12.1562 0.384521 12.0521 0.384521C11.9479 0.384521 11.8447 0.405068 11.7485 0.444985C11.6523 0.484902 11.5649 0.543406 11.4913 0.617147L10.0356 2.07283L13.0185 5.05578L14.4742 3.6001C14.548 3.52651 14.6065 3.4391 14.6464 3.34287C14.6863 3.24664 14.7068 3.14349 14.7068 3.03931C14.7068 2.93513 14.6863 2.83197 14.6464 2.73574C14.6065 2.63951 14.548 2.5521 14.4742 2.47851Z" fill="white"/>
</svg>
