<svg width="24" height="32" viewBox="0 0 24 32" fill="none" xmlns="http://www.w3.org/2000/svg">
<path d="M12.0007 0.333008C13.3267 0.333008 14.5985 0.859792 15.5362 1.79747C16.4739 2.73516 17.0007 4.00693 17.0007 5.33301V15.333C17.0007 16.6591 16.4739 17.9309 15.5362 18.8685C14.5985 19.8062 13.3267 20.333 12.0007 20.333C10.6746 20.333 9.4028 19.8062 8.46512 18.8685C7.52743 17.9309 7.00065 16.6591 7.00065 15.333V5.33301C7.00065 4.00693 7.52743 2.73516 8.46512 1.79747C9.4028 0.859792 10.6746 0.333008 12.0007 0.333008ZM23.6673 15.333C23.6673 21.2163 19.3173 26.0663 13.6673 26.883V31.9997H10.334V26.883C4.68398 26.0663 0.333984 21.2163 0.333984 15.333H3.66732C3.66732 17.5431 4.54529 19.6628 6.10809 21.2256C7.6709 22.7884 9.79051 23.6663 12.0007 23.6663C14.2108 23.6663 16.3304 22.7884 17.8932 21.2256C19.456 19.6628 20.334 17.5431 20.334 15.333H23.6673Z" fill="#6D717A"/>
</svg>
