<svg width="31" height="32" viewBox="0 0 31 32" fill="none" xmlns="http://www.w3.org/2000/svg">
<path d="M0.212402 4.06183V27.6025L18.1206 31.3574V0.595734L0.212402 4.06183ZM9.23465 21.3069C3.54169 20.9397 4.12803 10.6781 9.36755 10.5966C14.9805 10.9676 14.4299 21.225 9.23465 21.3069ZM9.31672 12.6058C6.31752 12.814 6.4518 19.2392 9.27046 19.2907C12.2567 19.0983 12.0814 12.6557 9.31672 12.6058ZM21.172 16.6981C21.4424 16.8968 21.7681 16.6981 21.7681 16.6981C21.4434 16.8968 30.6379 10.7896 30.6379 10.7896V21.8488C30.6379 23.0526 29.8673 23.5575 29.0007 23.5575H19.2517L19.2523 15.3798L21.172 16.6981ZM19.2528 7.11781V13.135L21.3556 14.459C21.411 14.4752 21.5312 14.4763 21.5867 14.459L30.6367 8.35747C30.6367 7.63541 29.9631 7.11781 29.583 7.11781H19.2528Z" fill="black"/>
</svg>
