<svg width="23" height="23" viewBox="0 0 23 23" fill="none" xmlns="http://www.w3.org/2000/svg">
<path d="M22.0271 0.906618C21.8678 0.746892 21.6659 0.63675 21.4456 0.58945C21.2254 0.542151 20.9962 0.559711 20.7857 0.640016L1.31144 8.03308H1.30754C1.083 8.1197 0.890594 8.27373 0.756599 8.47414C0.622604 8.67454 0.553554 8.91155 0.55888 9.15279C0.564206 9.39403 0.643648 9.62774 0.786356 9.822C0.929064 10.0163 1.12808 10.1616 1.35622 10.2382L1.37618 10.2445L8.06021 13.1073C8.19058 13.147 8.32905 13.1517 8.4618 13.1209C8.59455 13.0902 8.71693 13.025 8.81673 12.932L19.5443 2.90613C19.5762 2.87407 19.6142 2.84864 19.656 2.83128C19.6977 2.81393 19.7425 2.805 19.7877 2.805C19.8329 2.805 19.8777 2.81393 19.9194 2.83128C19.9612 2.84864 19.9991 2.87407 20.0311 2.90613C20.0631 2.93819 20.0884 2.97625 20.1057 3.01814C20.123 3.06003 20.1319 3.10493 20.1319 3.15027C20.1319 3.19561 20.123 3.24051 20.1057 3.2824C20.0884 3.32429 20.0631 3.36235 20.0311 3.39441L10.0348 14.1493C9.942 14.2494 9.87705 14.3721 9.84638 14.5053C9.81572 14.6384 9.82041 14.7773 9.85998 14.9081L12.7152 21.6161C12.7181 21.6259 12.721 21.6346 12.7244 21.6439C12.8802 22.0966 13.2745 22.4159 13.7511 22.4374H13.7998C14.0404 22.4388 14.2759 22.3675 14.4755 22.2329C14.6752 22.0982 14.8299 21.9065 14.9195 21.6825L22.2895 2.15515C22.3707 1.94386 22.3891 1.7135 22.3425 1.49193C22.296 1.27035 22.1864 1.06705 22.0271 0.906618Z" fill="#EE5719"/>
</svg>
