<svg width="15" height="15" viewBox="0 0 15 15" fill="none" xmlns="http://www.w3.org/2000/svg">
<path fill-rule="evenodd" clip-rule="evenodd" d="M14.6363 1.71992C14.7254 1.63095 14.7961 1.5253 14.8444 1.40901C14.8926 1.29273 14.9175 1.16807 14.9176 1.04217C14.9176 0.916272 14.8929 0.791589 14.8448 0.675242C14.7967 0.558895 14.7261 0.453163 14.6372 0.364083C14.5482 0.275003 14.4426 0.20432 14.3263 0.156068C14.21 0.107817 14.0853 0.0829421 13.9594 0.0828647C13.8335 0.0827873 13.7088 0.107509 13.5925 0.155617C13.4761 0.203726 13.3704 0.27428 13.2813 0.36325L7.49967 6.14492L1.71967 0.36325C1.53977 0.183345 1.29576 0.0822754 1.04134 0.0822754C0.786915 0.0822754 0.542911 0.183345 0.363006 0.36325C0.183101 0.543155 0.0820313 0.787159 0.0820312 1.04158C0.0820312 1.29601 0.183101 1.54001 0.363006 1.71992L6.14467 7.49992L0.363006 13.2799C0.273926 13.369 0.203264 13.4747 0.155054 13.5911C0.106844 13.7075 0.0820312 13.8323 0.0820312 13.9582C0.0820312 14.0842 0.106844 14.209 0.155054 14.3254C0.203264 14.4417 0.273926 14.5475 0.363006 14.6366C0.542911 14.8165 0.786915 14.9176 1.04134 14.9176C1.16732 14.9176 1.29206 14.8927 1.40845 14.8445C1.52484 14.7963 1.63059 14.7257 1.71967 14.6366L7.49967 8.85492L13.2813 14.6366C13.4612 14.8163 13.7052 14.9171 13.9594 14.917C14.2137 14.9168 14.4575 14.8157 14.6372 14.6357C14.8169 14.4558 14.9177 14.2119 14.9176 13.9577C14.9174 13.7034 14.8162 13.4596 14.6363 13.2799L8.85467 7.49992L14.6363 1.71992Z" fill="white"/>
</svg>
