<svg width="41" height="42" viewBox="0 0 41 42" fill="none" xmlns="http://www.w3.org/2000/svg">
<g opacity="0.55">
<path opacity="0.5" d="M32.4582 4.17969H8.5415C7.18352 4.18372 5.88231 4.72209 4.92206 5.67721C3.96182 6.63233 3.42056 7.92659 3.4165 9.27733V24.3324L10.0448 17.7394C11.0215 16.8148 12.3182 16.2991 13.6665 16.2991C15.0148 16.2991 16.3115 16.8148 17.2882 17.7394L22.1928 22.645L23.7098 21.1361C24.6726 20.1838 25.9753 19.6492 27.3332 19.6492C28.691 19.6492 29.9937 20.1838 30.9565 21.1361L37.5832 27.7308V9.27733C37.5791 7.92659 37.0379 6.63233 36.0776 5.67721C35.1174 4.72209 33.8162 4.18372 32.4582 4.17969Z" fill="black"/>
<path d="M17.2882 17.7391C16.3115 16.8145 15.0148 16.2988 13.6665 16.2988C12.3182 16.2988 11.0215 16.8145 10.0448 17.7391L3.4165 24.3321V33.066C3.42056 34.4168 3.96182 35.711 4.92206 36.6661C5.88231 37.6213 7.18352 38.1596 8.5415 38.1637H32.4582C33.1473 38.1632 33.8293 38.0246 34.4633 37.756C35.0973 37.4874 35.6704 37.0943 36.1482 36.6004L17.2882 17.7391Z" fill="black"/>
<path opacity="0.25" d="M37.5832 27.7266L30.9566 21.1354C29.9938 20.183 28.6911 19.6484 27.3332 19.6484C25.9754 19.6484 24.6727 20.183 23.7099 21.1354L22.1929 22.6443L36.1414 36.5931C37.0673 35.65 37.585 34.3841 37.5832 33.0655V27.7266Z" fill="black"/>
</g>
</svg>
