<svg width="100" height="69" viewBox="0 0 100 69" fill="none" xmlns="http://www.w3.org/2000/svg">
<rect width="99.5238" height="68.8373" rx="10" fill="#D9D9D9"/>
<g clip-path="url(#clip0_1_8)">
<path fill-rule="evenodd" clip-rule="evenodd" d="M50.5 15.75V27.9375C50.5 28.6834 50.7963 29.3988 51.3238 29.9262C51.8512 30.4537 52.5666 30.75 53.3125 30.75H65.5V49.5C65.5 50.4946 65.1049 51.4484 64.4016 52.1516C63.6984 52.8549 62.7446 53.25 61.75 53.25H39.25C38.2554 53.25 37.3016 52.8549 36.5983 52.1516C35.8951 51.4484 35.5 50.4946 35.5 49.5V19.5C35.5 18.5054 35.8951 17.5516 36.5983 16.8483C37.3016 16.1451 38.2554 15.75 39.25 15.75H50.5ZM54.37 35.7169L53.3125 38.535L52.4312 36.1856C51.7619 34.4006 49.2381 34.4006 48.5688 36.1856L47.6875 38.535L46.63 35.7169C46.4463 35.264 46.0932 34.9008 45.6456 34.7045C45.1981 34.5082 44.6917 34.4943 44.2341 34.6659C43.7765 34.8375 43.404 35.181 43.196 35.6231C42.9879 36.0653 42.9606 36.5712 43.12 37.0331L45.7563 44.0644C46.4256 45.8494 48.9494 45.8494 49.6187 44.0644L50.5 41.715L51.3813 44.0644C52.0506 45.8494 54.5744 45.8494 55.2437 44.0644L57.88 37.0331C58.0394 36.5712 58.0121 36.0653 57.804 35.6231C57.596 35.181 57.2235 34.8375 56.7659 34.6659C56.3083 34.4943 55.8019 34.5082 55.3544 34.7045C54.9068 34.9008 54.5537 35.264 54.37 35.7169ZM54.25 15.8306C54.9604 15.9813 55.6118 16.335 56.125 16.8487L64.4012 25.125C64.915 25.6382 65.2687 26.2896 65.4194 27H54.25V15.8306Z" fill="#2F80ED"/>
</g>
<defs>
<clipPath id="clip0_1_8">
<rect width="45" height="45" fill="white" transform="translate(28 12)"/>
</clipPath>
</defs>
</svg>
