<svg width="29" height="26" viewBox="0 0 29 26" fill="none" xmlns="http://www.w3.org/2000/svg">
<path fill-rule="evenodd" clip-rule="evenodd" d="M23.3984 20.3979C23.9207 19.8756 24.3351 19.2555 24.6178 18.5731C24.9005 17.8906 25.046 17.1591 25.046 16.4204C25.046 15.6818 24.9005 14.9503 24.6178 14.2678C24.3351 13.5854 23.9207 12.9653 23.3984 12.4429L14.5584 3.60419C14.3842 3.43003 14.2461 3.22326 14.1518 2.99571C14.0576 2.76815 14.0091 2.52425 14.0091 2.27794C14.0091 1.7805 14.2067 1.30344 14.5584 0.951694C14.9102 0.599951 15.3872 0.402344 15.8847 0.402344C16.131 0.402344 16.3749 0.450858 16.6024 0.545115C16.83 0.639373 17.0367 0.777529 17.2109 0.951694L26.0484 9.79045C27.7941 11.551 28.7713 13.9313 28.7662 16.4106C28.7612 18.8899 27.7742 21.2662 26.0213 23.0196C24.2685 24.773 21.8924 25.7606 19.4131 25.7664C16.9338 25.7722 14.5532 24.7956 12.7922 23.0504L2.18591 12.4442C0.896463 11.1549 0.171992 9.4062 0.171875 7.58276C0.171758 5.75932 0.896004 4.01052 2.18529 2.72107C3.47457 1.43162 5.22328 0.707149 7.04672 0.707032C8.87016 0.706915 10.619 1.43116 11.9084 2.72044L22.0734 12.8854C22.8939 13.706 23.3549 14.8188 23.3549 15.9792C23.3549 17.1396 22.8939 18.2524 22.0734 19.0729C21.2529 19.8935 20.14 20.3544 18.9797 20.3544C17.8193 20.3544 16.7064 19.8935 15.8859 19.0729L6.60466 9.79169C6.43058 9.61753 6.2925 9.41078 6.19832 9.18325C6.10414 8.95573 6.0557 8.71188 6.05575 8.46563C6.05581 8.21938 6.10437 7.97555 6.19866 7.74807C6.29295 7.52059 6.43112 7.3139 6.60529 7.13982C6.77945 6.96574 6.9862 6.82766 7.21373 6.73348C7.44126 6.6393 7.68511 6.59085 7.93135 6.59091C8.1776 6.59097 8.42143 6.63953 8.64891 6.73382C8.8764 6.82811 9.08308 6.96628 9.25716 7.14044L18.5372 16.4217C18.6544 16.5391 18.8134 16.605 18.9792 16.6052C19.0613 16.6052 19.1427 16.5891 19.2186 16.5577C19.2945 16.5264 19.3634 16.4803 19.4215 16.4223C19.4796 16.3643 19.5258 16.2954 19.5572 16.2195C19.5887 16.1437 19.605 16.0624 19.605 15.9803C19.6051 15.8981 19.589 15.8168 19.5576 15.7409C19.5262 15.665 19.4802 15.5961 19.4222 15.5379L9.25591 5.37169C8.66907 4.7898 7.87562 4.46406 7.04919 4.46575C6.22276 4.46744 5.43065 4.79643 4.84619 5.38072C4.26173 5.96501 3.93252 6.75703 3.93059 7.58346C3.92867 8.40989 4.25418 9.20343 4.83591 9.79045L15.4434 20.3979C15.9657 20.9203 16.5858 21.3346 17.2683 21.6173C17.9508 21.9 18.6822 22.0455 19.4209 22.0455C20.1596 22.0455 20.8911 21.9 21.5735 21.6173C22.256 21.3346 22.8761 20.9203 23.3984 20.3979Z" fill="#6D717A"/>
</svg>
