<svg width="35" height="35" viewBox="0 0 35 35" fill="none" xmlns="http://www.w3.org/2000/svg">
<circle cx="17.5" cy="17.5" r="17.5" fill="#EE5719"/>
<path d="M10.3408 21.8433V24.2615C10.3408 24.4842 10.5158 24.6592 10.7385 24.6592H13.1567C13.2601 24.6592 13.3635 24.6195 13.4351 24.5399L22.1215 15.8615L19.1385 12.8786L10.4601 21.557C10.3806 21.6365 10.3408 21.732 10.3408 21.8433ZM24.4283 12.4331L22.567 10.5717C22.4934 10.498 22.406 10.4395 22.3097 10.3996C22.2135 10.3597 22.1103 10.3391 22.0062 10.3391C21.902 10.3391 21.7988 10.3597 21.7026 10.3996C21.6064 10.4395 21.519 10.498 21.4454 10.5717L19.9897 12.0274L22.9726 15.0104L24.4283 13.5547C24.5021 13.4811 24.5606 13.3937 24.6005 13.2975C24.6404 13.2012 24.6609 13.0981 24.6609 12.9939C24.6609 12.8897 24.6404 12.7866 24.6005 12.6903C24.5606 12.5941 24.5021 12.5067 24.4283 12.4331Z" fill="white"/>
</svg>
