<svg width="100" height="69" viewBox="0 0 100 69" fill="none" xmlns="http://www.w3.org/2000/svg">
<rect width="99.5238" height="68.8373" rx="10" fill="#D9D9D9"/>
<path d="M62.25 54.0833H38.75C37.7112 54.0833 36.715 53.6707 35.9805 52.9362C35.246 52.2017 34.8333 51.2054 34.8333 50.1667V18.8333C34.8333 17.7946 35.246 16.7983 35.9805 16.0638C36.715 15.3293 37.7112 14.9167 38.75 14.9167H52.4583C52.4759 14.9144 52.4937 14.9144 52.5112 14.9167H52.523C52.5415 14.9224 52.5605 14.9264 52.5798 14.9284C52.7521 14.9402 52.9225 14.9735 53.087 15.0283H53.1692C53.2054 15.0536 53.2394 15.0818 53.271 15.1125C53.4844 15.2074 53.6788 15.3401 53.8448 15.5042L65.5948 27.2542C65.759 27.4202 65.8917 27.6146 65.9865 27.828C66.0036 27.8703 66.0186 27.9134 66.0315 27.9572L66.0511 28.012C66.106 28.1746 66.1373 28.345 66.1471 28.5173C66.1488 28.5368 66.1534 28.5559 66.1608 28.5741V28.5858C66.1639 28.5987 66.1659 28.6118 66.1667 28.625V50.1667C66.1667 51.2054 65.754 52.2017 65.0195 52.9362C64.285 53.6707 63.2888 54.0833 62.25 54.0833ZM52.4583 18.8333V28.625H62.25L52.4583 18.8333Z" fill="#DB0C0C"/>
</svg>
