<svg width="53" height="53" viewBox="0 0 53 53" fill="none" xmlns="http://www.w3.org/2000/svg">
<g clip-path="url(#clip0_4986_6747)">
<path d="M23.875 39.625H29.125V23.875H23.875V39.625ZM26.5 18.625C27.2437 18.625 27.8676 18.373 28.3716 17.869C28.8739 17.3667 29.125 16.7437 29.125 16C29.125 15.2563 28.8739 14.6324 28.3716 14.1284C27.8676 13.6261 27.2437 13.375 26.5 13.375C25.7563 13.375 25.1333 13.6261 24.631 14.1284C24.127 14.6324 23.875 15.2563 23.875 16C23.875 16.7437 24.127 17.3667 24.631 17.869C25.1333 18.373 25.7563 18.625 26.5 18.625ZM26.5 52.75C22.8687 52.75 19.4563 52.0605 16.2625 50.6815C13.0688 49.3042 10.2906 47.4344 7.92813 45.0719C5.56563 42.7094 3.69575 39.9312 2.3185 36.7375C0.9395 33.5438 0.25 30.1313 0.25 26.5C0.25 22.8687 0.9395 19.4563 2.3185 16.2625C3.69575 13.0688 5.56563 10.2906 7.92813 7.92813C10.2906 5.56563 13.0688 3.69487 16.2625 2.31587C19.4563 0.938625 22.8687 0.25 26.5 0.25C30.1313 0.25 33.5438 0.938625 36.7375 2.31587C39.9312 3.69487 42.7094 5.56563 45.0719 7.92813C47.4344 10.2906 49.3042 13.0688 50.6815 16.2625C52.0605 19.4563 52.75 22.8687 52.75 26.5C52.75 30.1313 52.0605 33.5438 50.6815 36.7375C49.3042 39.9312 47.4344 42.7094 45.0719 45.0719C42.7094 47.4344 39.9312 49.3042 36.7375 50.6815C33.5438 52.0605 30.1313 52.75 26.5 52.75ZM26.5 47.5C32.3625 47.5 37.3281 45.4656 41.3969 41.3969C45.4656 37.3281 47.5 32.3625 47.5 26.5C47.5 20.6375 45.4656 15.6719 41.3969 11.6031C37.3281 7.53437 32.3625 5.5 26.5 5.5C20.6375 5.5 15.6719 7.53437 11.6031 11.6031C7.53437 15.6719 5.5 20.6375 5.5 26.5C5.5 32.3625 7.53437 37.3281 11.6031 41.3969C15.6719 45.4656 20.6375 47.5 26.5 47.5Z" fill="#2D9CDB"/>
</g>
<defs>
<clipPath id="clip0_4986_6747">
<rect width="53" height="53" fill="white"/>
</clipPath>
</defs>
</svg>
