<svg width="100" height="69" viewBox="0 0 100 69" fill="none" xmlns="http://www.w3.org/2000/svg">
<rect width="99.5238" height="68.8373" rx="10" fill="#D9D9D9"/>
<path d="M62.25 54.0833H38.75C37.7112 54.0833 36.715 53.6707 35.9805 52.9362C35.246 52.2016 34.8333 51.2054 34.8333 50.1667V18.8333C34.8333 17.7946 35.246 16.7983 35.9805 16.0638C36.715 15.3293 37.7112 14.9167 38.75 14.9167H52.4583C52.4759 14.9144 52.4937 14.9144 52.5112 14.9167H52.523C52.5415 14.9224 52.5605 14.9264 52.5798 14.9284C52.7521 14.9402 52.9225 14.9735 53.087 15.0283H53.1692C53.2054 15.0536 53.2394 15.0818 53.271 15.1125C53.4844 15.2074 53.6788 15.3401 53.8448 15.5042L65.5948 27.2542C65.759 27.4202 65.8917 27.6146 65.9865 27.828C66.0036 27.8703 66.0186 27.9134 66.0315 27.9572L66.0511 28.012C66.106 28.1746 66.1373 28.345 66.1471 28.5173C66.1488 28.5368 66.1534 28.5559 66.1608 28.5741V28.5858C66.1639 28.5987 66.1659 28.6118 66.1667 28.625V50.1667C66.1667 51.2054 65.754 52.2016 65.0195 52.9362C64.285 53.6707 63.2888 54.0833 62.25 54.0833ZM55.247 38.4167V48.2083H57.0878V44.2133H59.947V42.5723H57.0878V40.0636H60.2917V38.4167H55.247ZM48.0012 38.4167V48.2083H50.3629C50.8521 48.2325 51.3404 48.1465 51.7919 47.9567C52.2434 47.7669 52.6465 47.4781 52.9714 47.1117C53.6468 46.2498 53.9852 45.1714 53.9232 44.0782V42.492C53.9687 41.4102 53.6209 40.3486 52.944 39.5035C52.3075 38.779 51.3773 38.3795 50.4119 38.4167H48.0012ZM40.7083 38.4167V48.2083H42.5492V44.7636H43.7751C44.5937 44.8087 45.3927 44.5051 45.9763 43.9294C46.5322 43.3072 46.8207 42.4911 46.7792 41.6577C46.8155 40.8043 46.5272 39.9688 45.9723 39.3195C45.7013 39.0189 45.367 38.782 44.9935 38.6259C44.6201 38.4698 44.2167 38.3984 43.8123 38.4167H40.7083ZM52.4583 18.8333V28.625H62.25L52.4583 18.8333ZM50.3943 46.5673H49.842V40.0636H50.5118C50.7458 40.0498 50.9796 40.0949 51.1917 40.1948C51.4038 40.2947 51.5875 40.4462 51.7259 40.6355C52.0138 41.2288 52.1372 41.8888 52.0823 42.5468V44.2486C52.1254 44.8753 51.9903 45.5019 51.6907 46.0522C51.5326 46.2368 51.3319 46.3801 51.1061 46.4698C50.8802 46.5596 50.6359 46.593 50.3943 46.5673ZM43.8123 43.1167H42.5472V40.0636H43.8299C43.9874 40.0653 44.142 40.107 44.279 40.1848C44.416 40.2625 44.531 40.3738 44.6133 40.5082C44.8248 40.8587 44.9266 41.2621 44.907 41.6714C44.9316 42.0523 44.8304 42.4307 44.6191 42.7485C44.5231 42.869 44.4 42.9652 44.2598 43.0292C44.1196 43.0931 43.9663 43.1231 43.8123 43.1167Z" fill="#DB0C0C"/>
</svg>
