<svg width="25" height="25" viewBox="0 0 25 25" fill="none" xmlns="http://www.w3.org/2000/svg">
<path d="M0.848642 12.1836C0.882822 12.1064 1.70997 10.2715 3.54884 8.43262C5.99903 5.98242 9.09376 4.6875 12.5 4.6875C15.9063 4.6875 19.001 5.98242 21.4512 8.43262C23.29 10.2715 24.1211 12.1094 24.1514 12.1836C24.1958 12.2835 24.2188 12.3916 24.2188 12.501C24.2188 12.6103 24.1958 12.7184 24.1514 12.8184C24.1172 12.8955 23.29 14.7295 21.4512 16.5684C19.001 19.0176 15.9063 20.3125 12.5 20.3125C9.09376 20.3125 5.99903 19.0176 3.54884 16.5684C1.70997 14.7295 0.882822 12.8955 0.848642 12.8184C0.804221 12.7184 0.781268 12.6103 0.781268 12.501C0.781268 12.3916 0.804221 12.2835 0.848642 12.1836ZM12.5 18.75C15.5059 18.75 18.1318 17.6572 20.3057 15.5029C21.1976 14.6159 21.9565 13.6044 22.5586 12.5C21.9566 11.3954 21.1978 10.384 20.3057 9.49707C18.1318 7.34277 15.5059 6.25 12.5 6.25C9.49415 6.25 6.86817 7.34277 4.69435 9.49707C3.80066 10.3837 3.04016 11.3952 2.43653 12.5C3.14063 13.8145 6.20802 18.75 12.5 18.75ZM12.5 7.8125C13.4271 7.8125 14.3334 8.08742 15.1042 8.60249C15.8751 9.11756 16.4759 9.84964 16.8307 10.7062C17.1855 11.5627 17.2783 12.5052 17.0974 13.4145C16.9166 14.3238 16.4701 15.159 15.8146 15.8146C15.159 16.4701 14.3238 16.9166 13.4145 17.0974C12.5052 17.2783 11.5627 17.1855 10.7062 16.8307C9.84965 16.4759 9.11756 15.8751 8.6025 15.1042C8.08743 14.3334 7.81251 13.4271 7.81251 12.5C7.8138 11.2572 8.30808 10.0657 9.18687 9.18686C10.0657 8.30807 11.2572 7.81379 12.5 7.8125ZM12.5 15.625C13.1181 15.625 13.7223 15.4417 14.2362 15.0983C14.7501 14.755 15.1506 14.2669 15.3871 13.6959C15.6237 13.1249 15.6855 12.4965 15.565 11.8903C15.4444 11.2842 15.1468 10.7273 14.7097 10.2903C14.2727 9.85325 13.7159 9.55562 13.1097 9.43505C12.5035 9.31447 11.8751 9.37635 11.3041 9.61288C10.7331 9.8494 10.245 10.2499 9.90167 10.7638C9.55829 11.2777 9.37501 11.8819 9.37501 12.5C9.37501 13.3288 9.70425 14.1237 10.2903 14.7097C10.8764 15.2958 11.6712 15.625 12.5 15.625Z" fill="#6D717A"/>
</svg>
